<svg xmlns="http://www.w3.org/2000/svg" xmlns:xlink="http://www.w3.org/1999/xlink" width="1920" height="1080" viewBox="0 0 1920 1080">
  <defs>
    <linearGradient id="linear-gradient" x1="0.5" x2="0.5" y2="1" gradientUnits="objectBoundingBox">
      <stop offset="0" stop-color="#c96969"/>
      <stop offset="1" stop-color="#3e1dc9"/>
    </linearGradient>
    <filter id="Tracé_1" x="1326.571" y="372.704" width="515.858" height="560.094" filterUnits="userSpaceOnUse">
      <feOffset dy="23" input="SourceAlpha"/>
      <feGaussianBlur stdDeviation="23.5" result="blur"/>
      <feFlood flood-opacity="0.161"/>
      <feComposite operator="in" in2="blur"/>
      <feComposite in="SourceGraphic"/>
    </filter>
    <filter id="Tracé_78" x="113.582" y="197.622" width="327.742" height="352.173" filterUnits="userSpaceOnUse">
      <feOffset dy="23" input="SourceAlpha"/>
      <feGaussianBlur stdDeviation="23.5" result="blur-2"/>
      <feFlood flood-opacity="0.161"/>
      <feComposite operator="in" in2="blur-2"/>
      <feComposite in="SourceGraphic"/>
    </filter>
    <filter id="Tracé_83" x="992.582" y="948.621" width="327.742" height="352.173" filterUnits="userSpaceOnUse">
      <feOffset dy="23" input="SourceAlpha"/>
      <feGaussianBlur stdDeviation="23.5" result="blur-3"/>
      <feFlood flood-opacity="0.161"/>
      <feComposite operator="in" in2="blur-3"/>
      <feComposite in="SourceGraphic"/>
    </filter>
    <linearGradient id="linear-gradient-4" x1="0.5" x2="0.5" y2="1" gradientUnits="objectBoundingBox">
      <stop offset="0" stop-color="#c96969"/>
      <stop offset="0.477" stop-color="#12c2e9"/>
      <stop offset="1" stop-color="#f64f59"/>
    </linearGradient>
    <filter id="Tracé_36" x="-316.337" y="-184.76" width="506.305" height="462.163" filterUnits="userSpaceOnUse">
      <feOffset dy="23" input="SourceAlpha"/>
      <feGaussianBlur stdDeviation="23.5" result="blur-4"/>
      <feFlood flood-opacity="0.161"/>
      <feComposite operator="in" in2="blur-4"/>
      <feComposite in="SourceGraphic"/>
    </filter>
    <filter id="Tracé_81" x="1595.663" y="834.24" width="506.305" height="462.163" filterUnits="userSpaceOnUse">
      <feOffset dy="23" input="SourceAlpha"/>
      <feGaussianBlur stdDeviation="23.5" result="blur-5"/>
      <feFlood flood-opacity="0.161"/>
      <feComposite operator="in" in2="blur-5"/>
      <feComposite in="SourceGraphic"/>
    </filter>
    <linearGradient id="linear-gradient-6" x1="0.5" x2="0.5" y2="1" gradientUnits="objectBoundingBox">
      <stop offset="0" stop-color="#c471ed"/>
      <stop offset="1" stop-color="#23c297"/>
    </linearGradient>
    <filter id="Tracé_39" x="251.473" y="918.101" width="315.57" height="382.603" filterUnits="userSpaceOnUse">
      <feOffset dy="23" input="SourceAlpha"/>
      <feGaussianBlur stdDeviation="23.5" result="blur-6"/>
      <feFlood flood-opacity="0.161"/>
      <feComposite operator="in" in2="blur-6"/>
      <feComposite in="SourceGraphic"/>
    </filter>
    <filter id="Tracé_76" x="1133.591" y="185.772" width="385.335" height="327.26" filterUnits="userSpaceOnUse">
      <feOffset dy="23" input="SourceAlpha"/>
      <feGaussianBlur stdDeviation="23.5" result="blur-7"/>
      <feFlood flood-opacity="0.161"/>
      <feComposite operator="in" in2="blur-7"/>
      <feComposite in="SourceGraphic"/>
    </filter>
    <linearGradient id="linear-gradient-8" x1="0.5" x2="0.5" y2="1" gradientUnits="objectBoundingBox">
      <stop offset="0" stop-color="#d23e79"/>
      <stop offset="1" stop-color="#eb932f"/>
    </linearGradient>
    <filter id="Tracé_38" x="-125.074" y="173.537" width="286.078" height="323.622" filterUnits="userSpaceOnUse">
      <feOffset dy="23" input="SourceAlpha"/>
      <feGaussianBlur stdDeviation="23.5" result="blur-8"/>
      <feFlood flood-opacity="0.161"/>
      <feComposite operator="in" in2="blur-8"/>
      <feComposite in="SourceGraphic"/>
    </filter>
    <linearGradient id="linear-gradient-9" x1="0.5" x2="0.5" y2="1" gradientUnits="objectBoundingBox">
      <stop offset="0" stop-color="#f64f59"/>
      <stop offset="1" stop-color="#23c297"/>
    </linearGradient>
    <filter id="Tracé_8" x="284.021" y="571.099" width="528.702" height="528.702" filterUnits="userSpaceOnUse">
      <feOffset dy="23" input="SourceAlpha"/>
      <feGaussianBlur stdDeviation="23.5" result="blur-9"/>
      <feFlood flood-opacity="0.161"/>
      <feComposite operator="in" in2="blur-9"/>
      <feComposite in="SourceGraphic"/>
    </filter>
    <filter id="Tracé_37" x="30.561" y="-272.216" width="431.432" height="499.076" filterUnits="userSpaceOnUse">
      <feOffset dy="23" input="SourceAlpha"/>
      <feGaussianBlur stdDeviation="23.5" result="blur-10"/>
      <feFlood flood-opacity="0.161"/>
      <feComposite operator="in" in2="blur-10"/>
      <feComposite in="SourceGraphic"/>
    </filter>
    <linearGradient id="linear-gradient-11" x1="0.5" x2="0.5" y2="1" gradientUnits="objectBoundingBox">
      <stop offset="0" stop-color="#2f76ac"/>
      <stop offset="1" stop-color="#23c297"/>
    </linearGradient>
    <filter id="Tracé_17" x="-89.864" y="822.822" width="454.838" height="460.589" filterUnits="userSpaceOnUse">
      <feOffset dy="23" input="SourceAlpha"/>
      <feGaussianBlur stdDeviation="23.5" result="blur-11"/>
      <feFlood flood-opacity="0.161"/>
      <feComposite operator="in" in2="blur-11"/>
      <feComposite in="SourceGraphic"/>
    </filter>
    <filter id="Tracé_82" x="1692.136" y="332.822" width="454.838" height="460.589" filterUnits="userSpaceOnUse">
      <feOffset dy="23" input="SourceAlpha"/>
      <feGaussianBlur stdDeviation="23.5" result="blur-12"/>
      <feFlood flood-opacity="0.161"/>
      <feComposite operator="in" in2="blur-12"/>
      <feComposite in="SourceGraphic"/>
    </filter>
    <filter id="Tracé_40" x="482.254" y="-190.822" width="376.583" height="428.812" filterUnits="userSpaceOnUse">
      <feOffset dy="23" input="SourceAlpha"/>
      <feGaussianBlur stdDeviation="23.5" result="blur-13"/>
      <feFlood flood-opacity="0.161"/>
      <feComposite operator="in" in2="blur-13"/>
      <feComposite in="SourceGraphic"/>
    </filter>
    <filter id="Tracé_79" x="290.797" y="356.163" width="421.498" height="350.841" filterUnits="userSpaceOnUse">
      <feOffset dy="23" input="SourceAlpha"/>
      <feGaussianBlur stdDeviation="23.5" result="blur-14"/>
      <feFlood flood-opacity="0.161"/>
      <feComposite operator="in" in2="blur-14"/>
      <feComposite in="SourceGraphic"/>
    </filter>
    <linearGradient id="linear-gradient-15" x1="0.5" x2="0.5" y2="1" gradientUnits="objectBoundingBox">
      <stop offset="0" stop-color="#c471ed"/>
      <stop offset="1" stop-color="#f64f59"/>
    </linearGradient>
    <filter id="Tracé_3" x="1103.586" y="717.678" width="630.732" height="577.337" filterUnits="userSpaceOnUse">
      <feOffset dy="23" input="SourceAlpha"/>
      <feGaussianBlur stdDeviation="23.5" result="blur-15"/>
      <feFlood flood-opacity="0.161"/>
      <feComposite operator="in" in2="blur-15"/>
      <feComposite in="SourceGraphic"/>
    </filter>
    <filter id="Tracé_42" x="246.671" y="-233.062" width="371.849" height="420.769" filterUnits="userSpaceOnUse">
      <feOffset dy="23" input="SourceAlpha"/>
      <feGaussianBlur stdDeviation="23.5" result="blur-16"/>
      <feFlood flood-opacity="0.161"/>
      <feComposite operator="in" in2="blur-16"/>
      <feComposite in="SourceGraphic"/>
    </filter>
    <linearGradient id="linear-gradient-17" x1="0.5" x2="0.5" y2="1" gradientUnits="objectBoundingBox">
      <stop offset="0" stop-color="#d23e79"/>
      <stop offset="0.469" stop-color="#12c2e9"/>
      <stop offset="1" stop-color="#c471ed"/>
    </linearGradient>
    <filter id="Tracé_9" x="477.5" y="958.441" width="418.501" height="260.059" filterUnits="userSpaceOnUse">
      <feOffset dy="23" input="SourceAlpha"/>
      <feGaussianBlur stdDeviation="23.5" result="blur-17"/>
      <feFlood flood-opacity="0.161"/>
      <feComposite operator="in" in2="blur-17"/>
      <feComposite in="SourceGraphic"/>
    </filter>
    <linearGradient id="linear-gradient-18" x1="0.5" x2="0.5" y2="1" gradientUnits="objectBoundingBox">
      <stop offset="0" stop-color="#18ac3b"/>
      <stop offset="1" stop-color="#3f9cd2"/>
    </linearGradient>
    <filter id="Tracé_10" x="1139.675" y="425.983" width="385.177" height="496.171" filterUnits="userSpaceOnUse">
      <feOffset dy="23" input="SourceAlpha"/>
      <feGaussianBlur stdDeviation="23.5" result="blur-18"/>
      <feFlood flood-opacity="0.161"/>
      <feComposite operator="in" in2="blur-18"/>
      <feComposite in="SourceGraphic"/>
    </filter>
    <linearGradient id="linear-gradient-19" x1="0.5" x2="0.5" y2="1" gradientUnits="objectBoundingBox">
      <stop offset="0" stop-color="#f64f59"/>
      <stop offset="1" stop-color="#3f9cd2"/>
    </linearGradient>
    <filter id="Tracé_15" x="-133.064" y="627.372" width="363.02" height="369.565" filterUnits="userSpaceOnUse">
      <feOffset dy="23" input="SourceAlpha"/>
      <feGaussianBlur stdDeviation="23.5" result="blur-19"/>
      <feFlood flood-opacity="0.161"/>
      <feComposite operator="in" in2="blur-19"/>
      <feComposite in="SourceGraphic"/>
    </filter>
    <filter id="Tracé_80" x="1738.936" y="127.372" width="363.021" height="369.565" filterUnits="userSpaceOnUse">
      <feOffset dy="23" input="SourceAlpha"/>
      <feGaussianBlur stdDeviation="23.5" result="blur-20"/>
      <feFlood flood-opacity="0.161"/>
      <feComposite operator="in" in2="blur-20"/>
      <feComposite in="SourceGraphic"/>
    </filter>
    <filter id="Tracé_77" x="910.235" y="-133.515" width="372.422" height="359.34" filterUnits="userSpaceOnUse">
      <feOffset dy="23" input="SourceAlpha"/>
      <feGaussianBlur stdDeviation="23.5" result="blur-21"/>
      <feFlood flood-opacity="0.161"/>
      <feComposite operator="in" in2="blur-21"/>
      <feComposite in="SourceGraphic"/>
    </filter>
    <filter id="Tracé_75" x="1321.63" y="5.292" width="477.402" height="352.362" filterUnits="userSpaceOnUse">
      <feOffset dy="23" input="SourceAlpha"/>
      <feGaussianBlur stdDeviation="23.5" result="blur-22"/>
      <feFlood flood-opacity="0.161"/>
      <feComposite operator="in" in2="blur-22"/>
      <feComposite in="SourceGraphic"/>
    </filter>
    <clipPath id="clip-fond">
      <rect width="1920" height="1080"/>
    </clipPath>
  </defs>
  <g id="fond" clip-path="url(#clip-fond)">
    <rect width="1920" height="1080" fill="#fff"/>
    <g transform="matrix(1, 0, 0, 1, 0, 0)" filter="url(#Tracé_1)">
      <path id="Tracé_1-2" data-name="Tracé 1" d="M130.5,0C91.394,220.97,261,58.427,261,130.5a130.5,130.5,0,0,1-261,0C0,58.427,169.606-220.97,130.5,0Z" transform="matrix(-0.92, -0.39, 0.39, -0.92, 1669.95, 762.44)" fill="url(#linear-gradient)"/>
    </g>
    <g transform="matrix(1, 0, 0, 1, 0, 0)" filter="url(#Tracé_78)">
      <path id="Tracé_78-2" data-name="Tracé 78" d="M66.381-41.026c-19.892,112.4,66.381,29.72,66.381,66.381A66.381,66.381,0,1,1,0,25.355C0-11.306,86.273-153.425,66.381-41.026Z" transform="matrix(0.93, -0.36, 0.36, 0.93, 214.01, 370.65)" fill="url(#linear-gradient)"/>
    </g>
    <g transform="matrix(1, 0, 0, 1, 0, 0)" filter="url(#Tracé_83)">
      <path id="Tracé_83-2" data-name="Tracé 83" d="M66.381-41.026c-19.892,112.4,66.381,29.72,66.381,66.381A66.381,66.381,0,1,1,0,25.355C0-11.306,86.273-153.425,66.381-41.026Z" transform="matrix(0.93, -0.36, 0.36, 0.93, 1093.01, 1121.65)" fill="url(#linear-gradient)"/>
    </g>
    <g transform="matrix(1, 0, 0, 1, 0, 0)" filter="url(#Tracé_36)">
      <path id="Tracé_36-2" data-name="Tracé 36" d="M115.432,73.858C80.841,269.314,230.864,125.538,230.864,189.29A115.432,115.432,0,0,1,0,189.29C0,125.538,150.023-121.6,115.432,73.858Z" transform="translate(-166.88 183.9) rotate(-110)" fill="url(#linear-gradient-4)"/>
    </g>
    <g transform="matrix(1, 0, 0, 1, 0, 0)" filter="url(#Tracé_81)">
      <path id="Tracé_81-2" data-name="Tracé 81" d="M115.432,73.858C80.841,269.314,230.864,125.538,230.864,189.29A115.432,115.432,0,0,1,0,189.29C0,125.538,150.023-121.6,115.432,73.858Z" transform="translate(1745.12 1202.9) rotate(-110)" fill="url(#linear-gradient-4)"/>
    </g>
    <g transform="matrix(1, 0, 0, 1, 0, 0)" filter="url(#Tracé_39)">
      <path id="Tracé_39-2" data-name="Tracé 39" d="M153.32,39.572c163.7,62.287-34.291,76.592-76.592,76.592A76.592,76.592,0,0,1,.136,39.572C.136-2.728-10.385-22.715,153.32,39.572Z" transform="translate(321.97 1173.24) rotate(-73)" fill="url(#linear-gradient-6)"/>
    </g>
    <g transform="matrix(1, 0, 0, 1, 0, 0)" filter="url(#Tracé_76)">
      <path id="Tracé_76-2" data-name="Tracé 76" d="M153.32,39.572c163.7,62.287-34.291,76.592-76.592,76.592A76.592,76.592,0,0,1,.136,39.572C.136-2.728-10.385-22.715,153.32,39.572Z" transform="translate(1245.72 233.27) rotate(21)" fill="url(#linear-gradient-6)"/>
    </g>
    <g transform="matrix(1, 0, 0, 1, 0, 0)" filter="url(#Tracé_38)">
      <path id="Tracé_38-2" data-name="Tracé 38" d="M123.4,10.674c117.851-26.732-27.623,61.7-61.7,61.7A61.7,61.7,0,0,1,0,10.674C0-23.4,5.546,37.406,123.4,10.674Z" transform="translate(-54.57 368.57) rotate(-61)" fill="url(#linear-gradient-8)"/>
    </g>
    <g transform="matrix(1, 0, 0, 1, 0, 0)" filter="url(#Tracé_8)">
      <path id="Tracé_8-2" data-name="Tracé 8" d="M252,126c269.308,102.468-56.412,126-126,126A126,126,0,0,1,0,126C0,56.412-17.308,23.532,252,126Z" transform="translate(563.87 1049.21) rotate(-135)" fill="url(#linear-gradient-9)"/>
    </g>
    <g transform="matrix(1, 0, 0, 1, 0, 0)" filter="url(#Tracé_37)">
      <path id="Tracé_37-2" data-name="Tracé 37" d="M223.1,57.583C461.316,148.22,173.2,169.035,111.65,169.035A111.452,111.452,0,0,1,.2,57.583C.2-3.97-15.111-33.054,223.1,57.583Z" transform="matrix(0.44, 0.9, -0.9, 0.44, 252.99, -224.72)" fill="url(#linear-gradient-9)"/>
    </g>
    <g transform="matrix(1, 0, 0, 1, 0, 0)" filter="url(#Tracé_17)">
      <path id="Tracé_17-2" data-name="Tracé 17" d="M116.875,157.082c125.031,151.392-26.19,186.159-58.5,186.159S-.12,259.894-.12,157.082-8.156,5.69,116.875,157.082Z" transform="translate(-60.73 938.73) rotate(-43)" fill="url(#linear-gradient-11)"/>
    </g>
    <g transform="matrix(1, 0, 0, 1, 0, 0)" filter="url(#Tracé_82)">
      <path id="Tracé_82-2" data-name="Tracé 82" d="M116.875,157.082c125.031,151.392-26.19,186.159-58.5,186.159S-.12,259.894-.12,157.082-8.156,5.69,116.875,157.082Z" transform="translate(1721.27 448.73) rotate(-43)" fill="url(#linear-gradient-11)"/>
    </g>
    <g transform="matrix(1, 0, 0, 1, 0, 0)" filter="url(#Tracé_40)">
      <path id="Tracé_40-2" data-name="Tracé 40" d="M103.579,85.076C214.173,218.988,80.413,249.741,51.836,249.741S.092,176.018.092,85.076-7.016-48.835,103.579,85.076Z" transform="translate(788.34 84.83) rotate(156)" fill="url(#linear-gradient-11)"/>
    </g>
    <g transform="matrix(1, 0, 0, 1, 0, 0)" filter="url(#Tracé_79)">
      <path id="Tracé_79-2" data-name="Tracé 79" d="M103.579,85.076C214.173,218.988,80.413,249.741,51.836,249.741S.092,176.018.092,85.076-7.016-48.835,103.579,85.076Z" transform="translate(641.8 472.5) rotate(106)" fill="url(#linear-gradient-11)"/>
    </g>
    <g transform="matrix(1, 0, 0, 1, 0, 0)" filter="url(#Tracé_3)">
      <path id="Tracé_3-2" data-name="Tracé 3" d="M406.091-27.667C458.834-27.667,136.424,61.182,95.5,191S0,148.243,0,95.5,353.348-27.667,406.091-27.667Z" transform="translate(1293.27 789.14) rotate(30)" fill="url(#linear-gradient-15)"/>
    </g>
    <g transform="matrix(1, 0, 0, 1, 0, 0)" filter="url(#Tracé_42)">
      <path id="Tracé_42-2" data-name="Tracé 42" d="M236.75-27.667c30.749,0-157.215,51.8-181.074,127.482S0,74.888,0,44.139,206-27.667,236.75-27.667Z" transform="translate(522.19 -139.9) rotate(111)" fill="url(#linear-gradient-15)"/>
    </g>
    <g transform="matrix(1, 0, 0, 1, 0, 0)" filter="url(#Tracé_9)">
      <path id="Tracé_9-2" data-name="Tracé 9" d="M203,101.5C396.876,57.523,157.557,203,101.5,203A101.5,101.5,0,0,1,0,101.5C0,45.443,9.124,145.477,203,101.5Z" transform="translate(548 922)" fill="url(#linear-gradient-17)"/>
    </g>
    <g transform="matrix(1, 0, 0, 1, 0, 0)" filter="url(#Tracé_10)">
      <path id="Tracé_10-2" data-name="Tracé 10" d="M115.5,0C65.4-248.988,231,51.711,231,115.5A115.5,115.5,0,0,1,115.5,231C51.711,231,165.6,248.988,115.5,0Z" transform="translate(1203.88 529.95) rotate(21)" fill="url(#linear-gradient-18)"/>
    </g>
    <g transform="matrix(1, 0, 0, 1, 0, 0)" filter="url(#Tracé_15)">
      <path id="Tracé_15-2" data-name="Tracé 15" d="M109.252-30.387C74.822-201.5,188.626,5.15,188.626,48.987a79.373,79.373,0,0,1-79.373,79.373C65.416,128.36,143.683,140.722,109.252-30.387Z" transform="translate(141.64 897.54) rotate(-137)" fill="url(#linear-gradient-19)"/>
    </g>
    <g transform="matrix(1, 0, 0, 1, 0, 0)" filter="url(#Tracé_80)">
      <path id="Tracé_80-2" data-name="Tracé 80" d="M109.252-30.387C74.822-201.5,188.626,5.15,188.626,48.987a79.373,79.373,0,0,1-79.373,79.373C65.416,128.36,143.683,140.722,109.252-30.387Z" transform="translate(2013.64 397.54) rotate(-137)" fill="url(#linear-gradient-19)"/>
    </g>
    <g transform="matrix(1, 0, 0, 1, 0, 0)" filter="url(#Tracé_77)">
      <path id="Tracé_77-2" data-name="Tracé 77" d="M109.252-30.387C74.822-201.5,188.626,5.15,188.626,48.987a79.373,79.373,0,0,1-79.373,79.373C65.416,128.36,143.683,140.722,109.252-30.387Z" transform="translate(1177.8 140.68) rotate(-131)" fill="url(#linear-gradient-19)"/>
    </g>
    <circle id="Ellipse_1" data-name="Ellipse 1" cx="17.5" cy="17.5" r="17.5" transform="translate(344 903)" fill="#7a4459" opacity="0.74"/>
    <circle id="Ellipse_56" data-name="Ellipse 56" cx="17.5" cy="17.5" r="17.5" transform="translate(1232 456)" fill="#7a4459" opacity="0.74"/>
    <circle id="Ellipse_53" data-name="Ellipse 53" cx="17.5" cy="17.5" r="17.5" transform="translate(718 966)" fill="#7a4459" opacity="0.74"/>
    <circle id="Ellipse_62" data-name="Ellipse 62" cx="17.5" cy="17.5" r="17.5" transform="translate(1809 837)" fill="#7a4459" opacity="0.74"/>
    <circle id="Ellipse_54" data-name="Ellipse 54" cx="17.5" cy="17.5" r="17.5" transform="translate(355 -17)" fill="#7a4459" opacity="0.74"/>
    <circle id="Ellipse_49" data-name="Ellipse 49" cx="17.5" cy="17.5" r="17.5" transform="translate(344 592)" fill="#7a4459" opacity="0.74"/>
    <circle id="Ellipse_31" data-name="Ellipse 31" cx="17.5" cy="17.5" r="17.5" transform="translate(553 36)" fill="#7a4459" opacity="0.74"/>
    <circle id="Ellipse_19" data-name="Ellipse 19" cx="35.5" cy="35.5" r="35.5" transform="translate(-23 573)" fill="#447a6f" opacity="0.74"/>
    <circle id="Ellipse_17" data-name="Ellipse 17" cx="17.5" cy="17.5" r="17.5" transform="translate(1567 852)" fill="#7a4459" opacity="0.74"/>
    <circle id="Ellipse_7" data-name="Ellipse 7" cx="31" cy="31" r="31" transform="translate(122 851)" fill="#7d7ae6" opacity="0.74"/>
    <circle id="Ellipse_63" data-name="Ellipse 63" cx="31" cy="31" r="31" transform="translate(1795 644)" fill="#7d7ae6" opacity="0.74"/>
    <circle id="Ellipse_25" data-name="Ellipse 25" cx="27.5" cy="27.5" r="27.5" transform="translate(119.533 539.628) rotate(-161)" fill="#7d7ae6" opacity="0.74"/>
    <circle id="Ellipse_50" data-name="Ellipse 50" cx="29" cy="29" r="29" transform="translate(1469.991 764.693) rotate(-161)" fill="#3ed2a5" opacity="0.74"/>
    <circle id="Ellipse_8" data-name="Ellipse 8" cx="50" cy="50" r="50" transform="translate(244 775)" fill="#e84b4b" opacity="0.74"/>
    <circle id="Ellipse_57" data-name="Ellipse 57" cx="50" cy="50" r="50" transform="translate(1182 53)" fill="#e84b4b" opacity="0.74"/>
    <circle id="Ellipse_59" data-name="Ellipse 59" cx="50" cy="50" r="50" transform="translate(1849 75)" fill="#e84b4b" opacity="0.74"/>
    <circle id="Ellipse_2" data-name="Ellipse 2" cx="17.5" cy="17.5" r="17.5" transform="translate(170 573)" fill="#d23e79" opacity="0.74"/>
    <circle id="Ellipse_32" data-name="Ellipse 32" cx="17.5" cy="17.5" r="17.5" transform="translate(960 820)" fill="#d23e79" opacity="0.74"/>
    <circle id="Ellipse_18" data-name="Ellipse 18" cx="17.5" cy="17.5" r="17.5" transform="translate(-17 919)" fill="#3ed248" opacity="0.74"/>
    <circle id="Ellipse_58" data-name="Ellipse 58" cx="17.5" cy="17.5" r="17.5" transform="translate(105 153)" fill="#3ed248" opacity="0.74"/>
    <circle id="Ellipse_61" data-name="Ellipse 61" cx="17.5" cy="17.5" r="17.5" transform="translate(1763 343)" fill="#3ed248" opacity="0.74"/>
    <circle id="Ellipse_3" data-name="Ellipse 3" cx="25.5" cy="25.5" r="25.5" transform="translate(571 593)" fill="#3e4dd2" opacity="0.58"/>
    <circle id="Ellipse_52" data-name="Ellipse 52" cx="25.5" cy="25.5" r="25.5" transform="translate(1489 311)" fill="#3e4dd2" opacity="0.58"/>
    <circle id="Ellipse_20" data-name="Ellipse 20" cx="49.5" cy="49.5" r="49.5" transform="translate(911 1055)" fill="#d23e79" opacity="0.58"/>
    <circle id="Ellipse_15" data-name="Ellipse 15" cx="15.5" cy="15.5" r="15.5" transform="translate(1017 775)" fill="#79838f" opacity="0.58"/>
    <rect id="Rectangle_27" data-name="Rectangle 27" width="378" height="1080" transform="translate(-378)" fill="#f64f59" opacity="0.81"/>
    <g transform="matrix(1, 0, 0, 1, 0, 0)" filter="url(#Tracé_75)">
      <path id="Tracé_75-2" data-name="Tracé 75" d="M223.1,57.583C461.316,148.22,173.2,169.035,111.65,169.035A111.452,111.452,0,0,1,.2,57.583C.2-3.97-15.111-33.054,223.1,57.583Z" transform="translate(1705.01 264.15) rotate(-172)" fill="url(#linear-gradient-9)"/>
    </g>
    <circle id="Ellipse_46" data-name="Ellipse 46" cx="27.5" cy="27.5" r="27.5" transform="translate(1325.971 33.271) rotate(-37)" fill="#7d7ae6" opacity="0.74"/>
    <circle id="Ellipse_60" data-name="Ellipse 60" cx="27.5" cy="27.5" r="27.5" transform="translate(1762.971 -5.729) rotate(-37)" fill="#7d7ae6" opacity="0.74"/>
  </g>
</svg>
